<svg width="1280" height="760" viewBox="0 0 1280 760" fill="none" xmlns="http://www.w3.org/2000/svg" role="img" aria-labelledby="title desc">
  <title id="title">MCP settings illustration</title>
  <desc id="desc">Documentation illustration of the MCP catalog view with provider cards, agent permissions and export actions.</desc>
  <rect width="1280" height="760" fill="#F6F3EE"/>
  <rect x="56" y="48" width="1168" height="664" rx="22" fill="#FFFDF8" stroke="#D8D0C4"/>
  <text x="96" y="110" fill="#181716" font-family="Inter, Segoe UI, Arial, sans-serif" font-size="30" font-weight="800">MCP Servers</text>
  <text x="96" y="144" fill="#6F6960" font-family="Inter, Segoe UI, Arial, sans-serif" font-size="15">Catálogo configurable para conectar agentes con herramientas externas bajo permisos explícitos.</text>

  <rect x="96" y="188" width="300" height="426" rx="16" fill="#FAF7F1" stroke="#D8D0C4"/>
  <text x="126" y="228" fill="#181716" font-family="Inter, Segoe UI, Arial, sans-serif" font-size="18" font-weight="800">Catálogo</text>
  <rect x="126" y="260" width="236" height="46" rx="10" fill="#EAF5F2" stroke="#1D7F6E"/>
  <text x="150" y="289" fill="#0F3D36" font-family="Inter, Segoe UI, Arial, sans-serif" font-size="14" font-weight="700">Workspace Tools</text>
  <rect x="126" y="324" width="236" height="46" rx="10" fill="#FFFDF8" stroke="#D8D0C4"/>
  <text x="150" y="353" fill="#181716" font-family="Inter, Segoe UI, Arial, sans-serif" font-size="14" font-weight="700">GitHub MCP</text>
  <rect x="126" y="388" width="236" height="46" rx="10" fill="#FFFDF8" stroke="#D8D0C4"/>
  <text x="150" y="417" fill="#181716" font-family="Inter, Segoe UI, Arial, sans-serif" font-size="14" font-weight="700">Jira MCP</text>
  <rect x="126" y="452" width="236" height="46" rx="10" fill="#FFFDF8" stroke="#D8D0C4"/>
  <text x="150" y="481" fill="#181716" font-family="Inter, Segoe UI, Arial, sans-serif" font-size="14" font-weight="700">Playwright MCP</text>
  <rect x="126" y="516" width="132" height="34" rx="10" fill="#1D7F6E"/>
  <text x="152" y="538" fill="white" font-family="Inter, Segoe UI, Arial, sans-serif" font-size="13" font-weight="700">Add MCP</text>

  <rect x="430" y="188" width="368" height="426" rx="16" fill="#FAF7F1" stroke="#D8D0C4"/>
  <text x="462" y="228" fill="#181716" font-family="Inter, Segoe UI, Arial, sans-serif" font-size="18" font-weight="800">Permisos de agentes</text>
  <rect x="462" y="264" width="288" height="38" rx="9" fill="#FFFDF8" stroke="#D8D0C4"/>
  <text x="486" y="288" fill="#181716" font-family="Inter, Segoe UI, Arial, sans-serif" font-size="13">Software Architect</text>
  <circle cx="730" cy="283" r="10" fill="#1D7F6E"/>
  <rect x="462" y="322" width="288" height="38" rx="9" fill="#FFFDF8" stroke="#D8D0C4"/>
  <text x="486" y="346" fill="#181716" font-family="Inter, Segoe UI, Arial, sans-serif" font-size="13">Backend Developer</text>
  <circle cx="730" cy="341" r="10" fill="#1D7F6E"/>
  <rect x="462" y="380" width="288" height="38" rx="9" fill="#FFFDF8" stroke="#D8D0C4"/>
  <text x="486" y="404" fill="#181716" font-family="Inter, Segoe UI, Arial, sans-serif" font-size="13">QA Automation</text>
  <circle cx="730" cy="399" r="10" fill="#B45309"/>
  <rect x="462" y="456" width="288" height="84" rx="12" fill="#EAF5F2" stroke="#1D7F6E"/>
  <text x="486" y="486" fill="#0F3D36" font-family="Inter, Segoe UI, Arial, sans-serif" font-size="14" font-weight="700">Regla de seguridad</text>
  <text x="486" y="512" fill="#2A6259" font-family="Inter, Segoe UI, Arial, sans-serif" font-size="13">Cada tool call se valida contra</text>
  <text x="486" y="532" fill="#2A6259" font-family="Inter, Segoe UI, Arial, sans-serif" font-size="13">el registro del agente.</text>

  <rect x="832" y="188" width="320" height="426" rx="16" fill="#FAF7F1" stroke="#D8D0C4"/>
  <text x="864" y="228" fill="#181716" font-family="Inter, Segoe UI, Arial, sans-serif" font-size="18" font-weight="800">Exportación</text>
  <rect x="864" y="264" width="230" height="42" rx="10" fill="#181716"/>
  <text x="896" y="291" fill="#FFFDF8" font-family="Inter, Segoe UI, Arial, sans-serif" font-size="14" font-weight="700">Codex TOML</text>
  <rect x="864" y="326" width="230" height="42" rx="10" fill="#FFFDF8" stroke="#D8D0C4"/>
  <text x="896" y="353" fill="#181716" font-family="Inter, Segoe UI, Arial, sans-serif" font-size="14" font-weight="700">VS Code</text>
  <rect x="864" y="388" width="230" height="42" rx="10" fill="#FFFDF8" stroke="#D8D0C4"/>
  <text x="896" y="415" fill="#181716" font-family="Inter, Segoe UI, Arial, sans-serif" font-size="14" font-weight="700">Claude / Cursor</text>
  <rect x="864" y="478" width="230" height="76" rx="12" fill="#FFF7ED" stroke="#EA580C"/>
  <text x="890" y="510" fill="#7C2D12" font-family="Inter, Segoe UI, Arial, sans-serif" font-size="14" font-weight="700">Secrets Vault</text>
  <text x="890" y="534" fill="#9A3412" font-family="Inter, Segoe UI, Arial, sans-serif" font-size="13">Env files por MCP</text>
</svg>
